<svg xmlns="http://www.w3.org/2000/svg" viewBox="0 0 240 240"><defs><linearGradient id="g" x1=".15" x2=".9" y1="1" y2="0"><stop stop-color="#ffd600"/><stop offset=".35" stop-color="#ff0069"/><stop offset=".7" stop-color="#d300c5"/><stop offset="1" stop-color="#7638fa"/></linearGradient></defs><rect width="240" height="240" rx="54" fill="url(#g)"/><path fill="#fff" d="M120 59c-16.6 0-18.7.1-25.1.4-6.5.3-10.9 1.3-14.8 2.8-4 1.6-7.4 3.6-10.8 7s-5.5 6.8-7 10.8c-1.5 3.9-2.5 8.3-2.8 14.8-.3 6.5-.4 8.6-.4 25.1s.1 18.7.4 25.1c.3 6.5 1.3 10.9 2.8 14.8 1.6 4 3.6 7.4 7 10.8s6.8 5.5 10.8 7c3.9 1.5 8.3 2.5 14.8 2.8 6.5.3 8.6.4 25.1.4s18.7-.1 25.1-.4c6.5-.3 10.9-1.3 14.8-2.8 4-1.6 7.4-3.6 10.8-7s5.5-6.8 7-10.8c1.5-3.9 2.5-8.3 2.8-14.8.3-6.5.4-8.6.4-25.1s-.1-18.7-.4-25.1c-.3-6.5-1.3-10.9-2.8-14.8-1.6-4-3.6-7.4-7-10.8s-6.8-5.5-10.8-7c-3.9-1.5-8.3-2.5-14.8-2.8-6.5-.3-8.6-.4-25.1-.4zm0 30.5a30.5 30.5 0 1 0 0 61 30.5 30.5 0 0 0 0-61zm0 50.3a19.8 19.8 0 1 1 0-39.6 19.8 19.8 0 0 1 0 39.6z"/><circle cx="151.8" cy="88.2" r="7.1" fill="#fff"/></svg>